<svg xmlns="http://www.w3.org/2000/svg" viewBox="0 0 516.64 87.83"><defs><style>.cls-1{fill:#80868b;}.cls-2{fill:#fbbc05;}.cls-3{fill:#ea4335;}.cls-4{fill:#4285f4;}.cls-5{fill:#34a853;}</style></defs><g id="Layer_2" data-name="Layer 2"><g id="Layer_1-2" data-name="Layer 1"><path class="cls-1" d="M152,71.09C135.68,71.09,122,57.84,122,41.56S135.68,12,152,12a28.11,28.11,0,0,1,20.23,8.14l-5.69,5.69a20.58,20.58,0,0,0-14.55-5.76,21.18,21.18,0,0,0-21.17,21.46A21.18,21.18,0,0,0,151.94,63c7.71,0,12.1-3.1,14.91-5.9,2.3-2.3,3.82-5.65,4.39-10.18h-19.3V39H179.1a25.77,25.77,0,0,1,.43,5c0,6-1.66,13.54-7,18.87C167.36,68.21,160.74,71.09,152,71.09Z"/><path class="cls-1" d="M220.49,52.08a19,19,0,1,1-37.9,0,19,19,0,1,1,37.9,0Zm-8.3,0c0-6.84-4.93-11.52-10.66-11.52s-10.65,4.68-10.65,11.52,4.93,11.52,10.65,11.52S212.19,58.84,212.19,52.08Z"/><path class="cls-1" d="M261.49,52.08a19,19,0,1,1-37.9,0,19,19,0,1,1,37.9,0Zm-8.3,0c0-6.84-4.93-11.52-10.66-11.52s-10.65,4.68-10.65,11.52,4.93,11.52,10.65,11.52S253.19,58.84,253.19,52.08Z"/><path class="cls-1" d="M300.54,34.22V68c0,14-8.28,19.8-18.07,19.8A18.11,18.11,0,0,1,265.62,76.6l7.27-3c1.3,3.1,4.46,6.77,9.58,6.77,6.26,0,10.15-3.89,10.15-11.16V66.77h-.29a13,13,0,0,1-10,4.32c-9.5,0-17.78-8.28-17.78-18.94s8.28-19.08,17.78-19.08a13.17,13.17,0,0,1,10,4.25h.29v-3.1Zm-7.35,17.93c0-6.7-4.42-11.59-10.06-11.59s-10.25,4.9-10.25,11.59,4.54,11.45,10.25,11.45S293.19,58.77,293.19,52.15Z"/><path class="cls-1" d="M314.31,14.06V69.94H306V14.06Z"/><path class="cls-1" d="M346.07,58.34l6.48,4.32a18.9,18.9,0,0,1-15.84,8.42,18.61,18.61,0,0,1-18.87-19c0-11.31,8.14-19,17.93-19s14.69,7.85,16.27,12.1l.86,2.16L327.49,57.84a9.66,9.66,0,0,0,9.22,5.76C341,63.6,343.91,61.51,346.07,58.34ZM326.12,51.5l17-7.06c-.94-2.38-3.75-4-7.06-4A10.43,10.43,0,0,0,326.12,51.5Z"/><path class="cls-1" d="M405.08,69.94H375.73V17.67h6.72V63.52h22.63Z"/><path class="cls-1" d="M427,71.11a17.09,17.09,0,0,1-13-5.4,19.1,19.1,0,0,1-5.11-13.66,19.27,19.27,0,0,1,5-13.57A16.38,16.38,0,0,1,426.54,33q8,0,12.63,5.19t4.75,14.38l-.08.73h-28.1a11.64,11.64,0,0,0,3.5,8.46,11.19,11.19,0,0,0,8,3.22c4.29,0,7.64-2.15,10.08-6.43l6,2.92a17.68,17.68,0,0,1-6.71,7.08A18.26,18.26,0,0,1,427,71.11ZM416.25,47.75h20.51a8.68,8.68,0,0,0-3.06-6.13,10.36,10.36,0,0,0-7.3-2.49,9.87,9.87,0,0,0-6.57,2.34A11.24,11.24,0,0,0,416.25,47.75Z"/><path class="cls-1" d="M450.06,34.17h6.42v5h.29a12.05,12.05,0,0,1,4.68-4.38A13.76,13.76,0,0,1,468.09,33q6.57,0,10.07,3.8t3.58,10.66V69.94H475v-22q-.21-8.76-8.83-8.76a8.35,8.35,0,0,0-6.71,3.29,11.58,11.58,0,0,0-2.71,7.74V69.94h-6.71Z"/><path class="cls-1" d="M516.64,60a9.7,9.7,0,0,1-4.09,7.89,16.13,16.13,0,0,1-10.29,3.21,16.51,16.51,0,0,1-9.49-2.78,15.72,15.72,0,0,1-5.84-7.44l6-2.56a11.48,11.48,0,0,0,3.79,5,9.63,9.63,0,0,0,5.55,1.75,9.5,9.5,0,0,0,5.33-1.39,3.91,3.91,0,0,0,2.19-3.28q0-3.44-5.26-5l-6.13-1.53Q488,51.26,488,43.81A9.23,9.23,0,0,1,491.9,36a16.59,16.59,0,0,1,10.22-3,16.35,16.35,0,0,1,8.54,2.27,12.19,12.19,0,0,1,5.4,6l-6,2.49a7.32,7.32,0,0,0-3.36-3.51A10,10,0,0,0,501.6,39a8.85,8.85,0,0,0-4.74,1.31,3.8,3.8,0,0,0-2,3.21q0,3.08,5.76,4.38l5.4,1.39Q516.65,51.91,516.64,60Z"/><path class="cls-2" d="M60.67,11.67A11.7,11.7,0,0,1,72.33,23.33v9.34H84V23.33A23.32,23.32,0,0,0,60.67,0H51.33V11.67Z"/><path class="cls-3" d="M11.67,23.33A11.7,11.7,0,0,1,23.33,11.67h9.34V0H23.33A23.32,23.32,0,0,0,0,23.33v9.34H11.67Z"/><path class="cls-4" d="M23.33,72.33A11.7,11.7,0,0,1,11.67,60.67V51.33H0v9.34A23.32,23.32,0,0,0,23.33,84h9.34V72.33Z"/><path class="cls-5" d="M70,79.33A9.33,9.33,0,1,0,60.67,70,9.33,9.33,0,0,0,70,79.33Z"/><path class="cls-4" d="M42,58.33A16.33,16.33,0,1,0,25.67,42,16.33,16.33,0,0,0,42,58.33Z"/></g></g></svg>